<svg xmlns="http://www.w3.org/2000/svg" width="20" height="21.818" viewBox="0 0 20 21.818"><defs><style>.a{fill:#d583ff;}</style></defs><g transform="translate(-8)"><path class="a" d="M28,3.636H21.636V2.727A2.73,2.73,0,0,0,18.909,0H17.091a2.73,2.73,0,0,0-2.727,2.727v.909H8V5.455H9l1.549,13.938a2.725,2.725,0,0,0,2.711,2.426h9.472a2.725,2.725,0,0,0,2.711-2.426L27,5.455h1ZM16.182,2.727a.91.91,0,0,1,.909-.909h1.818a.91.91,0,0,1,.909.909v.909H16.182ZM23.64,19.191a.908.908,0,0,1-.9.809H13.264a.908.908,0,0,1-.9-.809L10.834,5.455H25.166Z"/><path class="a" d="M88,64h1.833V75H88Z" transform="translate(-70.917 -56.788)"/><path class="a" d="M0,0H11.038V1.833H0Z" transform="translate(20.718 18.13) rotate(-85.241)"/><path class="a" d="M0,0H1.833V11.038H0Z" transform="translate(12.545 7.291) rotate(-4.759)"/></g></svg>