<svg xmlns="http://www.w3.org/2000/svg" width="39" height="30.643" viewBox="0 0 39 30.643"><defs><style>.a{fill:#60ffff;}</style></defs><g transform="translate(0 -54.82)"><g transform="translate(0 54.82)"><path class="a" d="M3.743,64.265q.74.522,4.461,3.1t5.7,3.971q.218.153.925.664t1.175.827q.468.315,1.132.707a6.566,6.566,0,0,0,1.252.587,3.448,3.448,0,0,0,1.088.2h.044a3.451,3.451,0,0,0,1.088-.2,6.573,6.573,0,0,0,1.251-.587q.664-.392,1.132-.707T24.168,72q.707-.512.925-.664,2-1.393,10.185-7.073a10.339,10.339,0,0,0,2.655-2.677A5.747,5.747,0,0,0,39,58.3a3.512,3.512,0,0,0-3.482-3.482H3.482A3.108,3.108,0,0,0,.9,55.952,4.393,4.393,0,0,0,0,58.781a5.084,5.084,0,0,0,1.2,2.971A10.8,10.8,0,0,0,3.743,64.265Z" transform="translate(0 -54.82)"/><path class="a" d="M36.823,186.33q-7.138,4.831-10.838,7.508-1.24.914-2.013,1.425a12.424,12.424,0,0,1-2.057,1.044,6.262,6.262,0,0,1-2.394.533h-.044a6.264,6.264,0,0,1-2.394-.533,12.43,12.43,0,0,1-2.057-1.044q-.772-.511-2.013-1.425Q10.076,191.684,2.2,186.33A11.528,11.528,0,0,1,0,184.437v17.28a3.352,3.352,0,0,0,1.023,2.459A3.353,3.353,0,0,0,3.482,205.2H35.518A3.493,3.493,0,0,0,39,201.717v-17.28A12,12,0,0,1,36.823,186.33Z" transform="translate(0 -174.557)"/></g></g></svg>