<svg xmlns="http://www.w3.org/2000/svg" width="36" height="36" viewBox="0 0 36 36"><defs><style>.a{fill:#60ffff;}</style></defs><g transform="translate(0 -0.001)"><path class="a" d="M34.012,0H1.987A1.987,1.987,0,0,0,0,1.988V34.013A1.988,1.988,0,0,0,1.987,36H19.228V22.06H14.537V16.626h4.691V12.619c0-4.649,2.839-7.182,6.987-7.182a38.91,38.91,0,0,1,4.191.213v4.86H27.529c-2.255,0-2.691,1.072-2.691,2.645v3.468H30.22l-.7,5.433H24.838V36h9.173A1.989,1.989,0,0,0,36,34.013V1.987A1.987,1.987,0,0,0,34.012,0Z" transform="translate(0)"/></g></svg>