<svg xmlns="http://www.w3.org/2000/svg" width="20" height="19.359" viewBox="0 0 20 19.359"><defs><style>.a{fill:#59ffc6;}</style></defs><g transform="translate(0 -4.564)"><g transform="translate(0 4.564)"><path class="a" d="M9.539,16.027a.631.631,0,0,0,.922,0L19.8,6.688a.632.632,0,0,0,0-.922l-1-1a.631.631,0,0,0-.922,0L10,12.64,2.124,4.764a.631.631,0,0,0-.922,0l-1,1a.63.63,0,0,0,0,.922Z" transform="translate(0 -4.564)"/><path class="a" d="M18.8,114.4a.631.631,0,0,0-.922,0L10,122.273,2.124,114.4a.631.631,0,0,0-.922,0l-1,1a.63.63,0,0,0,0,.922l9.339,9.339a.63.63,0,0,0,.922,0l9.339-9.339a.631.631,0,0,0,0-.922Z" transform="translate(0 -106.502)"/></g></g></svg>