<svg xmlns="http://www.w3.org/2000/svg" width="40" height="32.5" viewBox="0 0 40 32.5"><defs><style>.a{fill:#60ffff;}</style></defs><g transform="translate(0 -48)"><g transform="translate(0 48)"><path class="a" d="M40,51.848a17.1,17.1,0,0,1-4.725,1.295,8.154,8.154,0,0,0,3.607-4.533,16.388,16.388,0,0,1-5.2,1.985A8.2,8.2,0,0,0,19.5,56.2a8.444,8.444,0,0,0,.19,1.87A23.211,23.211,0,0,1,2.785,49.5,8.2,8.2,0,0,0,5.3,60.455a8.1,8.1,0,0,1-3.7-1.01v.09a8.238,8.238,0,0,0,6.57,8.057,8.184,8.184,0,0,1-2.15.27,7.251,7.251,0,0,1-1.552-.14,8.278,8.278,0,0,0,7.662,5.712,16.477,16.477,0,0,1-10.168,3.5A15.36,15.36,0,0,1,0,76.82,23.086,23.086,0,0,0,12.58,80.5c15.09,0,23.34-12.5,23.34-23.335,0-.363-.012-.713-.03-1.06A16.359,16.359,0,0,0,40,51.848Z" transform="translate(0 -48)"/></g></g></svg>