<svg xmlns="http://www.w3.org/2000/svg" width="411" height="308.265" viewBox="0 0 411 308.265"><defs><style>.a{fill:#6387ff;}.b{fill:#f0f0f0;}.c{fill:#3f3d56;}.d{fill:#6c63ff;}.e{opacity:0.1;}.f{fill:#2f2e41;}.g{fill:#fff;}.h{fill:#f2f2f2;}.i{fill:#ffb9b9;}.j{fill:#d0cde1;}</style></defs><g transform="translate(0 0)"><rect class="a" width="382.763" height="181.607" transform="translate(0 126.658)"/><rect class="b" width="256.204" height="108.038" transform="translate(63.279 200.227)"/><rect class="c" width="256.204" height="1.029" transform="translate(63.279 206.819)"/><circle class="c" cx="1.843" cy="1.843" r="1.843" transform="translate(66.055 201.973)"/><circle class="c" cx="1.843" cy="1.843" r="1.843" transform="translate(72.372 201.973)"/><circle class="c" cx="1.843" cy="1.843" r="1.843" transform="translate(78.69 201.973)"/><path class="d" d="M508.481,651.159l2.728,5.527,6.1.886-4.413,4.3,1.042,6.074-5.455-2.868-5.455,2.868,1.042-6.074-4.413-4.3,6.1-.886Z" transform="translate(-303.702 -395.79)"/><path class="d" d="M571.056,651.159l2.728,5.527,6.1.886-4.414,4.3,1.042,6.074-5.455-2.868-5.455,2.868,1.042-6.074-4.413-4.3,6.1-.886Z" transform="translate(-341.737 -395.79)"/><path class="d" d="M633.631,651.159l2.728,5.527,6.1.886-4.414,4.3,1.042,6.074-5.455-2.868-5.455,2.868,1.042-6.074-4.413-4.3,6.1-.886Z" transform="translate(-379.771 -395.79)"/><path class="d" d="M696.206,651.159l2.728,5.527,6.1.886-4.414,4.3,1.042,6.074-5.455-2.868-5.455,2.868,1.042-6.074-4.413-4.3,6.1-.886Z" transform="translate(-417.806 -395.79)"/><path class="d" d="M758.781,651.159l2.728,5.527,6.1.886-4.414,4.3,1.042,6.074-5.455-2.868-5.456,2.868,1.042-6.074-4.413-4.3,6.1-.886Z" transform="translate(-455.84 -395.79)"/><rect class="c" width="99.807" height="63.279" transform="translate(80.771 232.123)"/><path class="e" d="M101.124,322.962,0,392.384V356.819l49.317-33.857Z" transform="translate(0 -196.304)"/><path class="e" d="M216.133,322.962,0,471.34v-35.57L164.326,322.962Z" transform="translate(0 -196.304)"/><path class="b" d="M214.344,489.72l-6.927-7.427,7.427-6.927,6.927,7.427Zm-5.823-7.389,5.862,6.284,6.284-5.862-5.862-6.284Z" transform="translate(-155.879 -311.286)"/><path class="c" d="M792.259,484.315H782.1V474.159h10.156Zm-9.375-.781h8.594V474.94h-8.594Z" transform="translate(-505.187 -310.552)"/><circle class="b" cx="5.185" cy="5.185" r="5.185" transform="translate(344.812 250.067)"/><path class="f" d="M945.234,699.606a14.979,14.979,0,1,1,14.979-14.979A14.979,14.979,0,0,1,945.234,699.606Zm0-28.806a13.827,13.827,0,1,0,13.827,13.827A13.827,13.827,0,0,0,945.234,670.8Z" transform="translate(-595.237 -429.375)"/><path class="g" d="M375.294,747.532c2.382,8.8,10.54,14.257,10.54,14.257s4.3-8.822,1.915-17.626-10.54-14.257-10.54-14.257S372.912,738.728,375.294,747.532Z" transform="translate(-257.481 -466.002)"/><path class="d" d="M360.018,759.337c6.536,6.362,7.334,16.142,7.334,16.142s-9.8-.535-16.333-6.9-7.334-16.142-7.334-16.142S353.482,752.975,360.018,759.337Z" transform="translate(-238.705 -479.698)"/><path class="g" d="M411.239,747.532c-2.382,8.8-10.54,14.257-10.54,14.257s-4.3-8.822-1.915-17.626,10.54-14.257,10.54-14.257S413.621,738.728,411.239,747.532Z" transform="translate(-271.759 -466.002)"/><path class="d" d="M411.366,759.337c-6.536,6.362-7.334,16.142-7.334,16.142s9.8-.535,16.333-6.9S427.7,752.44,427.7,752.44,417.9,752.975,411.366,759.337Z" transform="translate(-275.386 -479.698)"/><rect class="h" width="41" height="47" transform="translate(291 9.224)"/><path class="c" d="M880.733,271.948l-.561-.548a28.671,28.671,0,0,0,5.75-10.06c1.908-5.743,2.84-14.812-3.556-25.406-6.545-10.84-6.839-19.644-5.934-25.121a22.5,22.5,0,0,1,3.605-9.439l.623.476a22.2,22.2,0,0,0-3.462,9.137c-.873,5.338-.568,13.929,5.839,24.541,6.56,10.865,5.588,20.186,3.618,26.093A28.882,28.882,0,0,1,880.733,271.948Z" transform="translate(-562.294 -144.746)"/><path class="c" d="M875.473,115.454H819V58.981h56.473Zm-55.689-.784h54.9v-54.9h-54.9Z" transform="translate(-527.614 -58.197)"/><rect class="c" width="34" height="1" transform="translate(303 17.224)"/><rect class="c" width="34" height="1" transform="translate(303 26.224)"/><rect class="c" width="34" height="2" transform="translate(303 34.224)"/><rect class="h" width="41" height="47" transform="translate(355 43.224)"/><path class="c" d="M1041.732,358.948l-.561-.548a28.667,28.667,0,0,0,5.75-10.06c1.908-5.743,2.841-14.812-3.556-25.406-6.545-10.84-6.839-19.644-5.934-25.121a22.5,22.5,0,0,1,3.6-9.439l.623.476a22.194,22.194,0,0,0-3.462,9.137c-.873,5.338-.568,13.929,5.839,24.541,6.56,10.865,5.588,20.186,3.618,26.093A28.878,28.878,0,0,1,1041.732,358.948Z" transform="translate(-660.153 -197.627)"/><path class="c" d="M1036.473,202.454H980V145.981h56.473Zm-55.689-.784h54.9v-54.9h-54.9Z" transform="translate(-625.473 -111.078)"/><rect class="c" width="35" height="1" transform="translate(366 51.224)"/><rect class="c" width="35" height="1" transform="translate(366 60.224)"/><rect class="c" width="35" transform="translate(366 69.224)"/><rect class="h" width="40" height="47" transform="translate(55 9.224)"/><path class="c" d="M275.733,269.948l-.561-.548a28.671,28.671,0,0,0,5.75-10.06c1.908-5.743,2.84-14.812-3.556-25.406-6.545-10.84-6.839-19.644-5.934-25.121a22.5,22.5,0,0,1,3.605-9.439l.623.476a22.2,22.2,0,0,0-3.462,9.137c-.873,5.338-.568,13.929,5.839,24.541,6.56,10.865,5.588,20.186,3.618,26.093A28.884,28.884,0,0,1,275.733,269.948Z" transform="translate(-194.56 -143.531)"/><path class="c" d="M270.473,113.454H214V56.981h56.473Zm-55.689-.784h54.9v-54.9h-54.9Z" transform="translate(-159.88 -56.981)"/><rect class="c" width="35" transform="translate(66 17.224)"/><rect class="c" width="35" transform="translate(66 26.224)"/><rect class="c" width="35" height="1" transform="translate(66 33.224)"/><path class="b" d="M455.781,366.159l2.728,5.527,6.1.886-4.414,4.3,1.042,6.074-5.455-2.868-5.456,2.868,1.042-6.074-4.413-4.3,6.1-.886Z" transform="translate(-271.67 -222.561)"/><path class="f" d="M540.167,105.392h0c9.425,0,17.065,8.479,17.065,18.938v13.289h-4.087l-2.366-4.924.591,4.924H525.1l-2.151-4.476.538,4.476H520.53V127.185C520.53,115.149,529.321,105.392,540.167,105.392Z" transform="translate(-346.196 -86.407)"/><path class="f" d="M616.808,326.777l10.478,4.453,36.41,29.6a10.716,10.716,0,0,1,2.357,5.763c.262,3.405,11.264,21.217,7.335,23.575s-18.074,9.43-18.86,4.715S649.551,370,649.551,370l-35.1-31.433Z" transform="translate(-403.284 -220.97)"/><path class="f" d="M725.326,488.8l4.453,13.1s-4.715,4.977-2.357,9.168v14.407h3.667l1.048-7.6s4.177,7.5,6.287,7.6c4.423.2,13.181,1.774,13.443-.583s-6.632-4.656-6.632-4.656L737.9,500.06l-3.143-12.311Z" transform="translate(-470.676 -318.812)"/><path class="f" d="M550.385,298.607s-2.357,23.051,4.453,27.242,36.934,17.55,36.934,17.55-12.835,12.049-10.216,14.931,14.407,10.74,15.979,9.168,19.122-20.432,17.026-26.456-31.171-25.671-31.171-25.671l-3.405-12.311-1.048-9.954-11-7.073Z" transform="translate(-364.103 -196.205)"/><circle class="i" cx="10.92" cy="10.92" r="10.92" transform="translate(187.363 26.893)"/><path class="i" d="M545.971,164.8s.524,9.954-7.6,13.1,20.17,23.575,20.17,23.575V178.688s-3.667-3.929,0-9.954Z" transform="translate(-356.152 -122.519)"/><path class="i" d="M515.6,284.03l2.1,10.216,6.287,35.1s-5.239,14.931,1.834,14.669,3.667-16.241,3.667-16.241L525.813,298.7V287.435Z" transform="translate(-343.198 -194.987)"/><path class="i" d="M624.391,271.339l2.357,9.168,10.74,25.933s7.334,12.311,1.31,12.049-6.025-12.049-6.025-12.049l-12.311-20.956V273.7Z" transform="translate(-406.937 -187.273)"/><path class="f" d="M602.677,466.374l-8.644,8.12s-6.025-1.31-8.382,5.763-3.929,11.526-3.929,11.526l3.143,1.834,3.929-5.5s2.357,9.954,4.715,10.74,14.145,6.025,13.1,0l-5.763-8.382s-.786-9.43,1.572-10.216,8.644-8.644,8.644-8.644Z" transform="translate(-383.39 -305.82)"/><path class="c" d="M548.721,319.585s24.623-8.906,26.194-8.12a11.814,11.814,0,0,0,3.69.958l-.022-3.577s-8.12-2.881-12.573-1.048-18.074,9.954-18.074,9.954Z" transform="translate(-362.854 -209.062)"/><path class="j" d="M539.344,214.3s-7.073-8.12-9.168-13.1a12.86,12.86,0,0,0-6.8-6.685s-15.729,3.542-15.467,9.828,9.954,15.979,9.954,15.979-1.31,34.839,5.763,34.315a15.17,15.17,0,0,0,3.143-6.287c.786-3.667,25.147-7.6,25.147-7.6s2.1,3.667,2.357,2.1-2.1-40.078-2.1-40.078l-12.491-8.257Z" transform="translate(-338.524 -140.577)"/><path class="j" d="M506.163,212.406l-.175.1a3.614,3.614,0,0,0-1.845,3.152l0,19.44a3.642,3.642,0,0,1-1.3,2.772c-1.009.858-1.945,2.1-.014,2.739,3.143,1.048,15.455,6.287,15.717,4.453s.786-3.929,0-3.929c-.615,0-4.281-18.784-7.226-26.815a3.615,3.615,0,0,0-5.163-1.91Z" transform="translate(-334.759 -151.172)"/><path class="j" d="M611.779,213.23l3.667,1.048,4.191,18.074s4.977,1.048,3.405,2.881-8.12,6.549-8.12,6.549Z" transform="translate(-401.66 -151.953)"/><path class="f" d="M541.567,113.11a8.95,8.95,0,0,1,7.062-3.6h.335c6.46,0,11.7,5.845,11.7,13.056H558.5l-.35-2.661-.513,2.661H544.8l-1.076-2.251.269,2.251h-2.526q-1.768,8.779,5.08,17.558h-4.3l-2.151-4.5.538,4.5h-8.2l-1.613-10.355C530.814,122.011,535.32,115.435,541.567,113.11Z" transform="translate(-352.448 -88.907)"/></g></svg>