<svg xmlns="http://www.w3.org/2000/svg" width="445.257" height="390.87" viewBox="0 0 445.257 390.87"><defs><style>.a{fill:#3f3d56;}.b{fill:#a0616a;}.c{fill:#d0cde1;}.d{fill:#2f2e41;}.e{opacity:0.1;}.f{fill:#5be3ed;}.g{fill:#e6e6e6;}.h{fill:#fff;}.i{fill:#6c63ff;}</style></defs><g transform="translate(0)"><path class="a" d="M469.99,722.464q-22.435-3.8-43.152-6.528l5.46-10.586c-1.841-.639-9.93,5.423-9.93,5.423l7.165-30.728c-9.259,1.117-13.967,32.492-13.967,32.492l-10.345-10.608,5.008,11.926a955.186,955.186,0,0,0-109.481-6.89l4.673-9.06c-1.841-.639-9.93,5.423-9.93,5.423l7.165-30.728c-9.259,1.117-13.967,32.492-13.967,32.492l-10.345-10.608,5.3,12.632a614.977,614.977,0,0,0-62.936,4.275c4.727-14.115,20.783-27.539,20.783-27.539-12.262,3.647-18.695,9.758-22.056,15.456a247.487,247.487,0,0,1,14.3-85.51s-25.346,55.155-22.112,92.177l.387,6.574c-21.488,3.077-32.291,6.278-32.291,6.278Z" transform="translate(-179.73 -331.594)"/><path class="a" d="M383.276,398.9v-1.059c2.107,0,4.245-.044,6.356-.128l.042,1.058C387.549,398.858,385.4,398.9,383.276,398.9Zm-6.4-.123c-2.118-.083-4.267-.21-6.387-.377l.083-1.056c2.106.167,4.241.292,6.345.374Zm19.182-.391-.084-1.056c2.1-.168,4.23-.382,6.324-.635l.127,1.052c-2.108.255-4.249.469-6.366.639Zm-31.936-.618c-2.112-.253-4.244-.551-6.337-.887l.168-1.046c2.078.334,4.2.63,6.294.881Zm44.638-.916-.169-1.046c2.078-.336,4.181-.72,6.252-1.141l.211,1.038c-2.085.424-4.2.811-6.294,1.15Zm-57.27-1.114c-2.085-.422-4.186-.892-6.245-1.4l.252-1.029c2.045.5,4.132.968,6.2,1.387ZM421.3,394.3l-.253-1.028c2.051-.5,4.117-1.058,6.14-1.644l.295,1.018c-2.037.59-4.116,1.146-6.181,1.654ZM339.065,392.7c-2.043-.59-4.1-1.228-6.111-1.9l.335-1.006c2,.665,4.041,1.3,6.07,1.885Zm94.525-1.954-.336-1c2-.668,4.014-1.387,5.986-2.136l.377.99c-1.985.755-4.013,1.478-6.027,2.151Zm-106.682-2.094c-1.988-.753-3.99-1.558-5.951-2.394l.415-.975c1.948.83,3.937,1.63,5.911,2.377Zm118.627-2.443-.416-.975c1.937-.827,3.881-1.7,5.779-2.607l.455.957c-1.91.908-3.869,1.792-5.818,2.624ZM315.11,383.623c-1.924-.914-3.854-1.878-5.734-2.866l.493-.937c1.868.981,3.784,1.939,5.7,2.847Zm141.955-2.9-.493-.937c1.866-.982,3.735-2.014,5.555-3.067l.531.917c-1.832,1.06-3.714,2.1-5.592,3.088Zm-153.3-3.061c-1.846-1.067-3.69-2.184-5.481-3.318l.567-.895c1.779,1.127,3.61,2.236,5.444,3.3Zm164.358-3.337-.567-.895c1.776-1.125,3.557-2.3,5.294-3.5l.6.871c-1.748,1.209-3.541,2.4-5.329,3.528Zm-175.18-3.516c-1.752-1.211-3.5-2.471-5.194-3.746l.637-.846c1.684,1.266,3.419,2.518,5.159,3.721Zm185.694-3.753L478,366.21c1.68-1.263,3.362-2.582,5-3.92l.67.82c-1.648,1.346-3.341,2.674-5.032,3.945Zm-195.927-3.944c-1.645-1.344-3.285-2.74-4.875-4.149l.7-.793c1.58,1.4,3.209,2.786,4.843,4.121Zm205.83-4.146-.7-.793c1.578-1.4,3.15-2.849,4.671-4.309l.734.765c-1.53,1.469-3.113,2.929-4.7,4.337ZM273.13,354.624c-1.528-1.468-3.051-2.99-4.525-4.523l.764-.735c1.465,1.523,2.978,3.036,4.5,4.493ZM497.767,350.1,497,349.37c1.46-1.519,2.911-3.09,4.313-4.67l.793.7c-1.411,1.59-2.872,3.172-4.342,4.7Zm-233.5-4.7c-1.413-1.592-2.808-3.231-4.148-4.869l.82-.67c1.331,1.628,2.717,3.255,4.12,4.836Zm242-4.87-.82-.67c1.339-1.637,2.66-3.32,3.927-5l.846.637c-1.276,1.694-2.607,3.388-3.954,5.036ZM256.169,335.5c-1.277-1.7-2.536-3.439-3.743-5.182l.871-.6c1.2,1.732,2.45,3.464,3.718,5.148Zm257.795-5.2-.871-.6c1.2-1.74,2.386-3.525,3.514-5.3l.895.567c-1.136,1.792-2.326,3.588-3.538,5.34Zm-265.07-5.31c-1.135-1.79-2.25-3.628-3.314-5.463L246.5,319c1.056,1.823,2.164,3.649,3.291,5.427Zm271.929-5.509-.917-.531c1.061-1.833,2.1-3.708,3.077-5.573l.937.494C522.933,315.751,521.89,317.639,520.823,319.484ZM242.49,313.937c-.987-1.874-1.95-3.795-2.861-5.709l.957-.455c.906,1.9,1.862,3.809,2.842,5.671Zm284.3-5.8-.957-.455c.907-1.908,1.788-3.861,2.618-5.806l.975.416C528.59,304.254,527.7,306.22,526.79,308.141ZM237,302.412c-.834-1.951-1.638-3.942-2.39-5.917l.99-.377c.746,1.961,1.545,3.939,2.374,5.877Zm294.821-6.067-.991-.376c.751-1.982,1.471-4,2.139-6l1,.335C533.3,292.317,532.579,294.35,531.822,296.345ZM232.457,290.47c-.675-2.014-1.317-4.069-1.908-6.108l1.018-.295c.588,2.025,1.225,4.066,1.9,6.067Zm303.42-6.279-1.018-.294c.585-2.022,1.137-4.087,1.641-6.14l1.028.252c-.508,2.067-1.063,4.147-1.651,6.182Zm-306.986-6.01c-.509-2.063-.982-4.163-1.407-6.242l1.038-.212c.422,2.065.892,4.151,1.4,6.2Zm310.037-6.415-1.039-.211c.419-2.064.8-4.167,1.138-6.253l1.046.169C539.735,267.57,539.35,269.688,538.928,271.766Zm-312.6-6.121c-.34-2.091-.642-4.223-.9-6.335l1.052-.127c.255,2.1.555,4.215.892,6.293Zm314.633-6.512-1.052-.126c.252-2.1.465-4.225.631-6.324l1.056.084C541.431,254.88,541.218,257.022,540.964,259.133Zm-316.173-6.188c-.171-2.116-.3-4.265-.387-6.387l1.058-.043c.086,2.108.215,4.243.385,6.345Zm317.189-6.564-1.058-.042c.083-2.111.125-4.249.125-6.355v-.351h1.059v.349C542.106,242.1,542.064,244.255,541.98,246.381ZM225.329,240.16H224.27v-.178c0-2.067.04-4.16.119-6.218l1.058.041c-.079,2.045-.118,4.124-.118,6.18Zm315.578-6.88c-.087-2.1-.219-4.238-.392-6.344l1.056-.086c.173,2.12.306,4.269.394,6.387Zm-315.088-5.821-1.056-.083c.167-2.121.378-4.264.629-6.368l1.052.125c-.249,2.09-.459,4.218-.624,6.325Zm314.051-6.847c-.256-2.089-.558-4.206-.9-6.292l1.046-.171c.343,2.1.648,4.23.9,6.334Zm-312.55-5.773-1.046-.168c.336-2.1.719-4.216,1.139-6.3l1.038.21c-.417,2.066-.8,4.171-1.131,6.255Zm310.5-6.769c-.425-2.07-.9-4.156-1.4-6.2l1.028-.255c.51,2.057.985,4.157,1.413,6.241Zm-307.984-5.689-1.029-.251c.5-2.062,1.057-4.143,1.645-6.184l1.018.293C230.886,198.267,230.336,200.333,229.835,202.381Zm304.926-6.647c-.59-2.023-1.229-4.064-1.9-6.065l1-.337c.677,2.014,1.321,4.068,1.914,6.106Zm-301.41-5.567-1.005-.334c.67-2.017,1.393-4.052,2.147-6.046l.991.375C234.734,186.143,234.016,188.164,233.351,190.167Zm297.362-6.481c-.753-1.971-1.553-3.947-2.38-5.875l.974-.417c.832,1.94,1.639,3.93,2.4,5.914Zm-292.855-5.438-.975-.415c.833-1.957,1.717-3.925,2.629-5.848l.957.454c-.905,1.911-1.784,3.866-2.611,5.81Zm287.858-6.212c-.907-1.9-1.865-3.806-2.848-5.667l.936-.495c.99,1.874,1.955,3.794,2.867,5.706Zm-282.4-5.294-.938-.492c.988-1.882,2.028-3.771,3.092-5.614l.918.53c-1.056,1.831-2.089,3.707-3.07,5.576Zm276.479-5.923c-1.059-1.824-2.169-3.648-3.3-5.423l.894-.569c1.137,1.787,2.253,3.624,3.32,5.46Zm-270.116-5.1-.9-.566c1.137-1.8,2.325-3.595,3.532-5.344l.872.6c-1.2,1.737-2.378,3.523-3.507,5.309Zm263.305-5.612c-1.2-1.732-2.455-3.463-3.724-5.144l.845-.638c1.278,1.693,2.539,3.435,3.748,5.179ZM256.9,145.25l-.847-.636c1.277-1.7,2.6-3.4,3.948-5.041l.821.67C259.492,141.877,258.172,143.562,256.9,145.25Zm248.426-5.278c-1.336-1.63-2.725-3.256-4.126-4.832l.791-.7c1.411,1.586,2.808,3.223,4.154,4.864ZM264.944,135.4l-.793-.7c1.407-1.589,2.866-3.173,4.337-4.706l.765.734c-1.461,1.523-2.91,3.1-4.308,4.675Zm231.943-4.922c-1.466-1.521-2.98-3.031-4.5-4.488l.733-.765c1.531,1.467,3.055,2.987,4.531,4.518Zm-223.144-4.251-.735-.764c1.529-1.471,3.109-2.932,4.7-4.343l.7.792c-1.577,1.4-3.147,2.853-4.666,4.314Zm213.966-4.543c-1.583-1.4-3.214-2.784-4.847-4.116l.669-.821c1.644,1.34,3.286,2.734,4.879,4.143Zm-204.465-3.894-.671-.819c1.644-1.346,3.335-2.676,5.027-3.951l.638.846C286.556,115.13,284.876,116.45,283.243,117.787Zm194.608-4.141c-1.69-1.268-3.428-2.519-5.163-3.716l.6-.872c1.747,1.205,3.5,2.463,5.2,3.74Zm-184.467-3.506-.6-.871c1.746-1.21,3.538-2.4,5.325-3.534l.568.894c-1.775,1.127-3.555,2.309-5.289,3.51Zm173.994-3.715c-1.786-1.128-3.619-2.235-5.448-3.29l.53-.918c1.841,1.062,3.686,2.176,5.485,3.312ZM304.1,103.337l-.532-.917c1.832-1.062,3.712-2.1,5.589-3.093l.495.937c-1.864.983-3.732,2.017-5.552,3.073Zm152.254-3.269c-1.871-.98-3.788-1.936-5.7-2.841l.453-.958c1.923.91,3.854,1.873,5.737,2.86ZM315.319,97.419l-.456-.957c1.91-.911,3.867-1.8,5.816-2.631l.417.974c-1.936.829-3.88,1.708-5.777,2.613Zm129.524-2.8c-1.947-.827-3.937-1.624-5.914-2.371l.374-.991c1.99.751,3.994,1.555,5.953,2.387ZM326.972,92.428l-.377-.99c1.982-.756,4.009-1.482,6.024-2.157l.337,1c-2,.671-4.014,1.392-5.983,2.143Zm105.949-2.31c-2-.664-4.045-1.3-6.072-1.878l.293-1.018c2.041.586,4.1,1.222,6.113,1.891Zm-93.9-1.733-.3-1.017c2.037-.593,4.116-1.152,6.179-1.662l.255,1.028C343.111,87.242,341.046,87.8,339.022,88.386Zm81.684-1.776c-2.045-.5-4.133-.963-6.2-1.38l.209-1.039c2.085.42,4.187.887,6.246,1.389Zm-69.347-1.275-.213-1.038c2.077-.425,4.194-.814,6.293-1.156l.171,1.045C355.526,84.526,353.422,84.913,351.359,85.335ZM408.247,84.1c-2.083-.332-4.2-.626-6.3-.874l.125-1.052c2.108.25,4.24.546,6.338.88ZM363.9,83.291l-.128-1.052c2.108-.257,4.249-.474,6.366-.646l.086,1.056c-2.1.171-4.23.387-6.323.642Zm31.723-.683c-2.1-.164-4.235-.287-6.345-.367l.04-1.059c2.124.081,4.273.205,6.387.37Zm-19.055-.347-.043-1.058c2.118-.087,4.271-.133,6.4-.137l0,1.059c-2.112,0-4.25.049-6.355.136Z" transform="translate(-200.676 -81.065)"/><path class="b" d="M428.549,494.719s-4.309,18.468-.616,18.468,11.081-8.618,11.081-8.618v-4.925Z" transform="translate(-295.749 -275.595)"/><path class="c" d="M257.707,382.858l-11.08,17.236h8Z" transform="translate(-115.982 -180.048)"/><rect class="b" width="14.774" height="12.312" transform="translate(134.954 353.013)"/><path class="b" d="M344.242,661.281l3.078,14.159,15.39-3.694-3.693-12.311Z" transform="translate(-161.888 -310.114)"/><path class="d" d="M431.809,501.977s-4.925,2.462-5.54,13.543,1.847,40.013,1.847,40.013-2.462,12.927,0,24.623-2.462,54.171.616,54.171,19.083,1.847,19.7,0,1.231-29.548,1.231-29.548,4.925-14.158,0-22.777c0,0,11.081,9.234,11.081,11.7s11.7,40.629,17.236,41.244,20.93-.616,17.852-6.156-10.465-30.779-10.465-30.779-5.54-18.468-15.39-26.47l4.925-39.4s10.465-26.47,4.309-30.164S431.809,501.977,431.809,501.977Z" transform="translate(-295.624 -278.237)"/><circle class="b" cx="16.005" cy="16.005" r="16.005" transform="translate(138.647 91.389)"/><path class="b" d="M456.57,298.568s6.156,20.314,4.309,22.777,19.7-13.543,19.7-13.543-8-5.54-4.925-13.543Z" transform="translate(-309.92 -181.325)"/><path class="c" d="M469.675,316.339s-7.387,2.462-11.081,6.771-12.312,4.925-12.312,4.925-7.619,4.291-10.465,11.7c-3.034,7.893-1.27,19,0,21.546,2.462,4.925,2.462,17.236,2.462,17.236L435.2,406.83s-11.081,10.465-2.462,11.7,24.008-.616,33.242,0,19.7,1.847,16.621-4.309-6.771-10.465-3.078-22.777c2.89-9.634,2.765-45.656,2.574-60.867a12.246,12.246,0,0,0-5.947-10.349Z" transform="translate(-297.17 -191.708)"/><path class="b" d="M457.144,494.137s-2.8,6.166-3.078,9.849c-2.155,28.625,13.543,0,13.543,0v-4.925Z" transform="translate(-308.647 -275.322)"/><path class="d" d="M516.225,756.5s-9.234-6.771-9.234-3.078-10.465,18.468-10.465,18.468S479.29,784.2,493.448,784.2s20.314-2.462,20.314-2.462l14.774-9.849s3.693-4.309,2.462-9.234-5.54-11.7-5.54-11.7S520.535,757.73,516.225,756.5Z" transform="translate(-324.638 -396.098)"/><path class="d" d="M408.938,761.405s-1.231-6.156-5.54-3.078-16.005,12.312-16.005,12.312-21.546,4.925-8,11.081,44.322-2.462,44.322-2.462,1.231-19.7,0-19.083S409.554,762.637,408.938,761.405Z" transform="translate(-271.522 -399.158)"/><path class="e" d="M291.856,271.879,293.7,309.43l-17.895,36.243-3.035-1.155,18.468-33.858Z" transform="translate(-128.278 -127.857)"/><path class="c" d="M487.9,330.626l4.617-.923s13.851,10.157,9.542,30.472-23.392,51.094-23.392,51.094-4.309,5.54-5.54,6.771-3.694,0-2.462,1.847-1.847,3.078-1.847,3.078-13.543,0-12.312-4.925,22.161-40.013,22.161-40.013L475.584,345.4S473.121,329.4,487.9,330.626Z" transform="translate(-309.85 -197.993)"/><path class="e" d="M328.566,354.047v-4.309l-20.93,34.473Z" transform="translate(-144.673 -164.472)"/><path class="d" d="M445.685,247.466l-2.646-1.059s5.532-6.091,13.23-5.561l-2.165-2.383s5.292-2.119,10.1,3.443c2.529,2.923,5.455,6.36,7.279,10.231h2.834l-1.183,2.6,4.139,2.6-4.249-.468a14.41,14.41,0,0,1-.4,6.744l.114,2.058s-4.925-7.62-4.925-8.679v2.648s-2.646-2.383-2.646-3.972l-1.443,1.854L463,254.616l-8.9,2.913,1.443-2.383-5.532.794,2.165-2.913s-6.254,3.443-6.495,6.356-3.367,6.62-3.367,6.62l-1.443-2.648S438.71,251.438,445.685,247.466Z" transform="translate(-302.39 -154.898)"/><rect class="f" width="228.247" height="45.064" transform="translate(217.01 86.778)"/><rect class="g" width="228.247" height="45.064" transform="translate(217.01 139.45)"/><circle class="h" cx="13.461" cy="13.461" r="13.461" transform="translate(227.544 95.556)"/><rect class="h" width="132.851" height="2.926" transform="translate(273.194 103.75)"/><rect class="h" width="132.851" height="2.926" transform="translate(273.194 111.358)"/><circle class="h" cx="13.461" cy="13.461" r="13.461" transform="translate(227.544 148.814)"/><rect class="h" width="132.851" height="2.926" transform="translate(273.194 157.007)"/><rect class="h" width="132.851" height="2.926" transform="translate(273.194 164.615)"/><rect class="h" width="132.851" height="2.926" transform="translate(273.194 157.007)"/><rect class="h" width="132.851" height="2.926" transform="translate(273.194 164.615)"/><rect class="g" width="228.247" height="45.064" transform="translate(217.01 191.193)"/><circle class="h" cx="13.461" cy="13.461" r="13.461" transform="translate(227.544 200.557)"/><rect class="h" width="132.851" height="2.926" transform="translate(273.194 208.75)"/><rect class="h" width="132.851" height="2.926" transform="translate(273.194 216.359)"/><rect class="h" width="132.851" height="2.926" transform="translate(273.194 208.75)"/><rect class="h" width="132.851" height="2.926" transform="translate(273.194 216.359)"/><path class="i" d="M448.366,202.356l-4.821-6.428,1.142-.857,3.927,5.236,15.463-12.651.9,1.105Z" transform="translate(-208.587 -88.25)"/></g></svg>